# xmcd CD database file
#
# Track frame offsets:
#	150
#	22297
#	31686
#	48645
#	68045
#	89410
#
# Disc length: 1410 seconds
#
# Revision: 0
# Processed by: cddbd v1.5.1PL0 Copyright (c) Steve Scherf et al.
# Submitted via: CDex 1.51
#
DISCID=4b058006
DTITLE=OPTICALATE - d'artcopelia
DYEAR=1900
DGENRE=ゲーム
TTITLE0=giniro - ac.instrumental ver.
TTITLE1=intro
TTITLE2=mitsuketa - ep.solo
TTITLE3=Zingaro
TTITLE4=giniro - phase B
TTITLE5=arigato. sayonara.
EXTD=
EXTT0=
EXTT1=
EXTT2=
EXTT3=
EXTT4=
EXTT5=
PLAYORDER=
